<?xml version="1.0" encoding="UTF-8"?>
<svg xmlns="http://www.w3.org/2000/svg" width="109" height="109" viewBox="0 0 109 109">

	<g style="fill:none;stroke:#000000;stroke-width:3;stroke-linecap:round;stroke-linejoin:round;">

		<g>
			<g>
				<path d="M21.63,24.83 c 1.81,0.46 5.14,0.4 6.94,0.21 c 14.55-1.53 35.18-4.16 50.1-5.25 c 3.01-0.22 4.83,0.22 6.34,0.45"/>
			</g>
			<g>
				<path d="M25.31,51.64 c 2.09,0.31 3.47,0.4 5.94,0.11 c 10.62-1.25 35.88-4.38 45.96-4.93 c 1.74-0.1 3.62,0.03 5.99,0.45"/>
				<path d="M50.32,26 c 0.68,1 1.3,3.43 1.29,5.37 c -0.24,30.51 -14.86,50.88 -33.86,60.25"/>
				<path d="M50.1,51.39 C 58.71,60 75.07,78.48 86.59,87.05 c 2.33,1.73 4.41,3.08 7.91,4.2"/>
			</g>
		</g>

	</g>

	<g style="font-size:8;fill:#808080">
		<text transform="matrix(1 0 0 1 12.75 22.63)">1</text>
		<text transform="matrix(1 0 0 1 17.25 51.13)">2</text>
		<text transform="matrix(1 0 0 1 42.75 36.13)">3</text>
		<text transform="matrix(1 0 0 1 65.25 61.63)">4</text>
	</g>

</svg>
