<?xml version="1.0" encoding="UTF-8"?>
<svg xmlns="http://www.w3.org/2000/svg" width="109" height="109" viewBox="0 0 109 109">

	<g style="fill:none;stroke:#000000;stroke-width:3;stroke-linecap:round;stroke-linejoin:round;">

		<g>
			<path d="M54.71,18.37 c 1.4,1.4 2.26,3.13 2.26,5.77 c 0,14.56-0.26,54.91-0.26,59.87 c 0,11.25-7.21,1.5-8.71,0.25"/>
			<path d="M31.95,47.68 c 0.17,0.82 0.1,1.72-0.34,2.9 C29.5,56.38 24.38,66.25 16.75,73"/>
			<path d="M80.96,47.12 C86.62,52 95.25,64.62 97,72"/>
		</g>

	</g>

	<g style="font-size:8;fill:#808080">
		<text transform="matrix(1 0 0 1 45.50 16.13)">1</text>
		<text transform="matrix(1 0 0 1 31.00 43.28)">2</text>
		<text transform="matrix(1 0 0 1 72.50 43.28)">3</text>
	</g>

</svg>
